#N canvas 478 102 632 408 12;
#X obj 90 131 readsf~ 2, f 22;
#X msg 106 103 stop;
#X msg 40 103 start;
#X obj 112 283 dac~ 1 2;
#X msg 90 65 open LSfooled.wav;
#X text 223 57 demonstrate pitfall if you connect open directly to
start. Show solution with comma \; two messages in sequence;
#X msg 207 209 1000;
#X msg 164 209 500;
#X msg 258 209 20000;
#X obj 89 242 lop~ 400;
#X obj 164 243 lop~ 400;
#X msg 112 209 200;
#X connect 0 0 9 0;
#X connect 0 1 10 0;
#X connect 1 0 0 0;
#X connect 2 0 0 0;
#X connect 4 0 0 0;
#X connect 6 0 9 1;
#X connect 6 0 10 1;
#X connect 7 0 9 1;
#X connect 7 0 10 1;
#X connect 8 0 9 1;
#X connect 8 0 10 1;
#X connect 9 0 3 0;
#X connect 10 0 3 1;
#X connect 11 0 9 1;
#X connect 11 0 10 1;
