#N canvas 542 126 632 471 12;
#X obj 94 137 readsf~ 2, f 16;
#X msg 110 109 stop;
#X msg 94 79 open LSfooled.wav \, start;
#X obj 430 124 metro;
#X obj 420 98 tgl 15 0 empty empty empty 17 7 0 10 -262144 -1 -1 0
1;
#X obj 462 69 loadbang;
#X msg 462 96 1000;
#X obj 474 185 + 1;
#X obj 382 254 mod 4;
#X floatatom 382 304 5 0 0 0 - - -;
#X obj 430 184 float;
#X floatatom 430 211 5 0 0 0 - - -;
#X obj 382 278 + 1;
#X obj 465 266 mod 4;
#X floatatom 465 314 5 0 0 0 - - -;
#X obj 465 290 + 1;
#X obj 465 242 + 1;
#X msg 463 160 0;
#X obj 382 330 s dacL;
#X obj 465 338 s dacR;
#X msg 101 226 set \$1;
#X obj 101 202 r dacL;
#X msg 161 226 set \$1;
#X obj 161 202 r dacR;
#X obj 94 253 dac~ 1 2 5, f 16;
#X obj 221 181 lop~ 200;
#X obj 220 228 *~;
#X obj 238 205 tgl 15 0 empty empty empty 17 7 0 10 -262144 -1 -1 0
1;
#X text 315 39 sequencer controls which dac channels used;
#X connect 0 0 24 0;
#X connect 0 0 25 0;
#X connect 0 1 24 1;
#X connect 0 1 25 0;
#X connect 1 0 0 0;
#X connect 2 0 0 0;
#X connect 3 0 10 0;
#X connect 4 0 3 0;
#X connect 5 0 6 0;
#X connect 6 0 3 1;
#X connect 7 0 10 1;
#X connect 8 0 12 0;
#X connect 9 0 18 0;
#X connect 10 0 7 0;
#X connect 10 0 11 0;
#X connect 11 0 8 0;
#X connect 11 0 16 0;
#X connect 12 0 9 0;
#X connect 13 0 15 0;
#X connect 14 0 19 0;
#X connect 15 0 14 0;
#X connect 16 0 13 0;
#X connect 17 0 10 1;
#X connect 20 0 24 0;
#X connect 21 0 20 0;
#X connect 22 0 24 1;
#X connect 23 0 22 0;
#X connect 25 0 26 0;
#X connect 26 0 24 2;
#X connect 27 0 26 1;
