#N canvas 558 204 660 300 12;
#X obj 98 170 writesf~ 1;
#X obj 97 49 adc~ 1;
#X msg 114 85 open myAwesomeFile.wav;
#X msg 122 110 start;
#X msg 138 138 stop;
#X obj 375 185 dac~ 1;
#X msg 399 127 stop;
#X msg 374 95 open LSfooled.wav \, start;
#X obj 374 157 readsf~ 1;
#X connect 1 0 0 0;
#X connect 2 0 0 0;
#X connect 3 0 0 0;
#X connect 4 0 0 0;
#X connect 6 0 8 0;
#X connect 7 0 8 0;
#X connect 8 0 5 0;
