#N canvas 565 91 450 463 12;
#X obj 93 144 route choice1 choice2 choice3;
#X obj 93 185 bng 15 250 50 0 empty empty empty 17 7 0 10 -262144 -1
-1;
#X obj 226 185 bng 15 250 50 0 empty empty empty 17 7 0 10 -262144
-1 -1;
#X obj 159 185 bng 15 250 50 0 empty empty empty 17 7 0 10 -262144
-1 -1;
#X obj 293 185 bng 15 250 50 0 empty empty empty 17 7 0 10 -262144
-1 -1;
#X msg 93 16 choice1;
#X msg 103 42 choice2;
#X msg 113 67 choice3;
#X msg 123 96 notAChoice;
#X msg 218 50 choice1 subchoice2;
#X msg 194 23 choice1 subchoice1;
#X obj 48 222 route subchoice1 subchoice2;
#X obj 48 258 bng 15 250 50 0 empty empty empty 17 7 0 10 -262144 -1
-1;
#X obj 141 258 bng 15 250 50 0 empty empty empty 17 7 0 10 -262144
-1 -1;
#X msg 48 281 3;
#X msg 141 281 5;
#X floatatom 93 326 5 0 0 0 - - -;
#X obj 231 261 bng 15 250 50 0 empty empty empty 17 7 0 10 -262144
-1 -1;
#X connect 0 0 1 0;
#X connect 0 0 11 0;
#X connect 0 1 3 0;
#X connect 0 2 2 0;
#X connect 0 3 4 0;
#X connect 5 0 0 0;
#X connect 6 0 0 0;
#X connect 7 0 0 0;
#X connect 8 0 0 0;
#X connect 9 0 0 0;
#X connect 10 0 0 0;
#X connect 11 0 12 0;
#X connect 11 1 13 0;
#X connect 11 2 17 0;
#X connect 12 0 14 0;
#X connect 13 0 15 0;
#X connect 14 0 16 0;
#X connect 15 0 16 0;
