#N canvas 551 2 582 622 12;
#X obj 179 638 dac~ 1 2;
#X obj 115 266 osc~ 220;
#X msg 16 39 \; pd dsp \$1;
#X obj 16 12 tgl 15 0 empty empty empty 17 7 0 10 -262144 -1 -1 0 1
;
#X obj 115 97 vsl 15 128 20 15000 1 0 empty empty empty 0 -9 0 10 -262144
-1 -1 4600 1;
#X floatatom 115 238 5 0 0 0 - - -;
#X msg 115 67 220;
#X obj 115 39 loadbang;
#X text 187 16 BE VERY CAREFUL WITH GAIN SLIDERS ALWAYS;
#X text -14 144 properties >> log;
#X obj 134 324 vsl 15 128 0 1 0 0 empty empty empty 0 -9 0 10 -262144
-1 -1 3800 1;
#X msg 134 299 0;
#X floatatom 134 462 5 0 0 0 - - -;
#X obj 116 490 *~;
#X text 165 300 mute;
#X obj 234 266 osc~ 220;
#X obj 234 97 vsl 15 128 20 15000 1 0 empty empty empty 0 -9 0 10 -262144
-1 -1 5930 1;
#X floatatom 234 238 5 0 0 0 - - -;
#X obj 253 324 vsl 15 128 0 1 0 0 empty empty empty 0 -9 0 10 -262144
-1 -1 5600 1;
#X msg 253 299 0;
#X floatatom 253 462 5 0 0 0 - - -;
#X obj 235 490 *~;
#X text 284 300 mute;
#X text 105 144;
#X msg 234 67 440;
#X obj 113 12 bng 15 250 50 0 empty empty empty 17 7 0 10 -262144 -1
-1;
#X text 134 10 reset;
#X msg 197 526 0;
#X floatatom 197 572 5 0 0 0 - - -;
#X obj 179 600 *~;
#X obj 201 551 hsl 128 15 0 1 0 0 empty empty empty -2 -8 0 10 -262144
-1 -1 9300 1;
#X text 228 528 mute master fader;
#X text 101 550 MASTER FADER;
#X connect 1 0 13 0;
#X connect 3 0 2 0;
#X connect 4 0 5 0;
#X connect 5 0 1 0;
#X connect 6 0 4 0;
#X connect 7 0 6 0;
#X connect 7 0 24 0;
#X connect 10 0 12 0;
#X connect 11 0 10 0;
#X connect 12 0 13 1;
#X connect 13 0 29 0;
#X connect 15 0 21 0;
#X connect 16 0 17 0;
#X connect 17 0 15 0;
#X connect 18 0 20 0;
#X connect 19 0 18 0;
#X connect 20 0 21 1;
#X connect 21 0 29 0;
#X connect 24 0 16 0;
#X connect 25 0 6 0;
#X connect 25 0 24 0;
#X connect 27 0 30 0;
#X connect 28 0 29 1;
#X connect 29 0 0 0;
#X connect 29 0 0 1;
#X connect 30 0 28 0;
